<?xml version="1.0" encoding="UTF-8"?>
<svg xmlns="http://www.w3.org/2000/svg" xmlns:xlink="http://www.w3.org/1999/xlink" width="30pt" height="30.000001pt" viewBox="0 0 30 30.000001" version="1.2">
<defs>
<clipPath id="clip1">
  <path d="M 0.484375 13 L 29.515625 13 L 29.515625 16 L 0.484375 16 Z M 0.484375 13 "/>
</clipPath>
<clipPath id="clip2">
  <path d="M 2 16 L 28 16 L 28 29.03125 L 2 29.03125 Z M 2 16 "/>
</clipPath>
</defs>
<g id="surface1">
<g clip-path="url(#clip1)" clip-rule="nonzero">
<path style=" stroke:none;fill-rule:nonzero;fill:rgb(25.099182%,4.708862%,1.568604%);fill-opacity:1;" d="M 29.03125 13.066406 L 0.96875 13.066406 C 0.699219 13.066406 0.484375 13.28125 0.484375 13.546875 L 0.484375 15 C 0.484375 15.265625 0.699219 15.484375 0.96875 15.484375 L 29.03125 15.484375 C 29.300781 15.484375 29.515625 15.265625 29.515625 15 L 29.515625 13.546875 C 29.515625 13.28125 29.300781 13.066406 29.03125 13.066406 Z M 29.03125 13.066406 "/>
</g>
<path style=" stroke:none;fill-rule:nonzero;fill:rgb(25.099182%,4.708862%,1.568604%);fill-opacity:1;" d="M 9.675781 4.839844 L 11.613281 4.839844 L 11.613281 7.257812 C 11.613281 7.792969 12.046875 8.226562 12.582031 8.226562 C 13.117188 8.226562 13.546875 7.792969 13.546875 7.257812 C 13.546875 7.792969 13.980469 8.226562 14.515625 8.226562 C 15.050781 8.226562 15.484375 7.792969 15.484375 7.257812 C 15.484375 7.792969 15.917969 8.226562 16.453125 8.226562 C 16.984375 8.226562 17.417969 7.792969 17.417969 7.257812 C 17.417969 7.792969 17.851562 8.226562 18.386719 8.226562 C 18.921875 8.226562 19.355469 7.792969 19.355469 7.257812 L 19.355469 0 L 11.128906 0 L 11.128906 1.933594 L 9.675781 3.386719 Z M 9.675781 4.839844 "/>
<path style=" stroke:none;fill-rule:nonzero;fill:rgb(25.099182%,4.708862%,1.568604%);fill-opacity:1;" d="M 8.226562 4.839844 C 7.15625 4.839844 6.289062 5.707031 6.289062 6.773438 L 6.289062 12.097656 L 8.226562 12.097656 L 8.226562 6.773438 L 10.644531 6.773438 L 10.644531 5.324219 L 9.195312 5.324219 L 9.195312 4.839844 Z M 8.226562 4.839844 "/>
<path style=" stroke:none;fill-rule:nonzero;fill:rgb(25.099182%,4.708862%,1.568604%);fill-opacity:1;" d="M 23.710938 12.097656 L 23.710938 6.773438 C 23.710938 5.707031 22.84375 4.839844 21.773438 4.839844 L 20.324219 4.839844 L 20.324219 6.773438 L 21.773438 6.773438 L 21.773438 12.097656 Z M 23.710938 12.097656 "/>
<g clip-path="url(#clip2)" clip-rule="nonzero">
<path style=" stroke:none;fill-rule:nonzero;fill:rgb(25.099182%,4.708862%,1.568604%);fill-opacity:1;" d="M 24.578125 27.601562 L 27.582031 16.453125 L 2.417969 16.453125 L 5.421875 27.601562 C 5.648438 28.445312 6.414062 29.03125 7.289062 29.03125 L 22.710938 29.03125 C 23.585938 29.03125 24.351562 28.445312 24.578125 27.601562 Z M 5.804688 18.871094 L 4.839844 18.871094 L 4.839844 17.902344 L 5.804688 17.902344 Z M 7.742188 18.871094 L 6.773438 18.871094 L 6.773438 17.902344 L 7.742188 17.902344 Z M 8.710938 17.902344 L 9.675781 17.902344 L 9.675781 18.871094 L 8.710938 18.871094 Z M 12.097656 27.097656 L 9.675781 27.097656 L 9.675781 24.675781 L 10.644531 24.675781 L 10.644531 26.128906 L 12.097656 26.128906 Z M 17.933594 23.082031 L 17.199219 23.84375 L 15 26.128906 L 12.800781 23.84375 L 12.066406 23.082031 C 11.460938 22.449219 11.460938 21.425781 12.066406 20.796875 C 12.675781 20.164062 13.660156 20.164062 14.265625 20.796875 L 15 21.558594 L 15.734375 20.796875 C 16.339844 20.164062 17.324219 20.164062 17.933594 20.796875 C 18.539062 21.425781 18.539062 22.449219 17.933594 23.082031 Z M 20.804688 20.804688 L 19.839844 20.804688 L 19.839844 19.355469 L 18.386719 19.355469 L 18.386719 18.386719 L 20.804688 18.386719 Z M 20.804688 20.804688 "/>
</g>
</g>
</svg>
