<?xml version="1.0" encoding="UTF-8"?>
<svg xmlns="http://www.w3.org/2000/svg" xmlns:xlink="http://www.w3.org/1999/xlink" width="375pt" height="374.999991pt" viewBox="0 0 375 374.999991" version="1.2">
<defs>
<clipPath id="clip1">
  <path d="M 2.96875 169 L 371.96875 169 L 371.96875 200 L 2.96875 200 Z M 2.96875 169 "/>
</clipPath>
<clipPath id="clip2">
  <path d="M 119 2.96875 L 243 2.96875 L 243 108 L 119 108 Z M 119 2.96875 "/>
</clipPath>
<clipPath id="clip3">
  <path d="M 27 212 L 348 212 L 348 371.96875 L 27 371.96875 Z M 27 212 "/>
</clipPath>
</defs>
<g id="surface1">
<rect x="0" y="0" width="375" height="374.999991" style="fill:rgb(100%,100%,100%);fill-opacity:1;stroke:none;"/>
<rect x="0" y="0" width="375" height="374.999991" style="fill:rgb(100%,100%,100%);fill-opacity:1;stroke:none;"/>
<rect x="0" y="0" width="375" height="374.999991" style="fill:rgb(25.099182%,4.708862%,1.568604%);fill-opacity:1;stroke:none;"/>
<g clip-path="url(#clip1)" clip-rule="nonzero">
<path style=" stroke:none;fill-rule:nonzero;fill:rgb(100%,92.939758%,94.898987%);fill-opacity:1;" d="M 365.816406 169.019531 L 9.117188 169.019531 C 5.722656 169.019531 2.96875 171.773438 2.96875 175.167969 L 2.96875 193.617188 C 2.96875 197.011719 5.722656 199.769531 9.117188 199.769531 L 365.816406 199.769531 C 369.210938 199.769531 371.96875 197.011719 371.96875 193.617188 L 371.96875 175.167969 C 371.96875 171.773438 369.210938 169.019531 365.816406 169.019531 Z M 365.816406 169.019531 "/>
</g>
<g clip-path="url(#clip2)" clip-rule="nonzero">
<path style=" stroke:none;fill-rule:nonzero;fill:rgb(100%,92.939758%,94.898987%);fill-opacity:1;" d="M 119.816406 64.46875 L 144.417969 64.46875 L 144.417969 95.21875 C 144.417969 102.015625 149.921875 107.519531 156.71875 107.519531 C 163.515625 107.519531 169.019531 102.015625 169.019531 95.21875 C 169.019531 102.015625 174.523438 107.519531 181.316406 107.519531 C 188.113281 107.519531 193.617188 102.015625 193.617188 95.21875 C 193.617188 102.015625 199.121094 107.519531 205.917969 107.519531 C 212.714844 107.519531 218.21875 102.015625 218.21875 95.21875 C 218.21875 102.015625 223.722656 107.519531 230.519531 107.519531 C 237.3125 107.519531 242.816406 102.015625 242.816406 95.21875 L 242.816406 2.96875 L 138.269531 2.96875 L 138.269531 27.566406 L 119.816406 46.019531 Z M 119.816406 64.46875 "/>
</g>
<path style=" stroke:none;fill-rule:nonzero;fill:rgb(100%,92.939758%,94.898987%);fill-opacity:1;" d="M 101.367188 64.46875 C 87.78125 64.46875 76.769531 75.484375 76.769531 89.066406 L 76.769531 156.71875 L 101.367188 156.71875 L 101.367188 89.066406 L 132.117188 89.066406 L 132.117188 70.617188 L 113.667969 70.617188 L 113.667969 64.46875 Z M 101.367188 64.46875 "/>
<path style=" stroke:none;fill-rule:nonzero;fill:rgb(100%,92.939758%,94.898987%);fill-opacity:1;" d="M 298.167969 156.71875 L 298.167969 89.066406 C 298.167969 75.484375 287.152344 64.46875 273.566406 64.46875 L 255.117188 64.46875 L 255.117188 89.066406 L 273.566406 89.066406 L 273.566406 156.71875 Z M 298.167969 156.71875 "/>
<g clip-path="url(#clip3)" clip-rule="nonzero">
<path style=" stroke:none;fill-rule:nonzero;fill:rgb(100%,92.939758%,94.898987%);fill-opacity:1;" d="M 309.21875 353.765625 L 347.367188 212.066406 L 27.566406 212.066406 L 65.714844 353.765625 C 68.605469 364.5 78.347656 371.96875 89.46875 371.96875 L 285.460938 371.96875 C 296.585938 371.96875 306.328125 364.5 309.21875 353.765625 Z M 70.617188 242.816406 L 58.316406 242.816406 L 58.316406 230.519531 L 70.617188 230.519531 Z M 95.21875 242.816406 L 82.917969 242.816406 L 82.917969 230.519531 L 95.21875 230.519531 Z M 107.519531 230.519531 L 119.816406 230.519531 L 119.816406 242.816406 L 107.519531 242.816406 Z M 150.566406 347.367188 L 119.816406 347.367188 L 119.816406 316.617188 L 132.117188 316.617188 L 132.117188 335.066406 L 150.566406 335.066406 Z M 224.730469 296.335938 L 215.414062 306.019531 L 187.46875 335.066406 L 159.523438 306.015625 L 150.207031 296.328125 C 142.488281 288.308594 142.488281 275.300781 150.207031 267.277344 C 157.921875 259.257812 170.433594 259.257812 178.152344 267.277344 L 187.46875 276.96875 L 196.785156 267.28125 C 204.503906 259.261719 217.011719 259.261719 224.730469 267.28125 C 232.449219 275.308594 232.449219 288.308594 224.730469 296.335938 Z M 261.269531 267.417969 L 248.96875 267.417969 L 248.96875 248.96875 L 230.519531 248.96875 L 230.519531 236.667969 L 261.269531 236.667969 Z M 261.269531 267.417969 "/>
</g>
</g>
</svg>
